<?xml version="1.0" encoding="utf-8"?>
<!-- Generator: Adobe Illustrator 25.2.3, SVG Export Plug-In . SVG Version: 6.00 Build 0)  -->
<svg version="1.1" id="Слой_1" xmlns="http://www.w3.org/2000/svg" xmlns:xlink="http://www.w3.org/1999/xlink" x="0px" y="0px"
	 viewBox="0 0 88.6 82.8" style="enable-background:new 0 0 88.6 82.8;" xml:space="preserve">
<style type="text/css">
	.st0{fill:none;stroke:#010202;stroke-width:0.25;stroke-miterlimit:10;}
</style>
<path class="st0" d="M34.7,49c-2-2.1-2.9-4.7-2.9-7.6c0-2.9,1-5.5,2.9-7.6c2-2.1,4.4-3.2,7.3-3.2s5.4,1.1,7.3,3.2
	c2,2.1,2.9,4.7,2.9,7.6h12.8c0-6.5-2.2-12-6.6-16.3c-4.4-4.3-9.9-6.4-16.5-6.5c-6.6-0.1-12.1,2.2-16.5,6.5
	c-4.4,4.3-6.6,9.8-6.6,16.3c0,6.5,2.2,12,6.6,16.3c4.4,4.3,9.9,6.5,16.5,6.5v-12C39.1,52.2,36.6,51.2,34.7,49z"/>
<path class="st0" d="M65.1,64.2H52.3V51.6h12.8V64.2z"/>
</svg>
