<svg width="270" height="52" viewBox="0 0 270 52" fill="none" xmlns="http://www.w3.org/2000/svg">
<g clip-path="url(#clip0_401_1326)">
<path d="M40.7439 31.4497C40.7439 37.3376 39.0064 42.2428 35.5489 46.1475C32.0827 50.0521 27.4756 52.0089 21.7278 52.0089C19.5954 52.0089 17.4893 51.5484 15.4095 50.6365C13.321 49.7245 11.8292 48.3964 10.9253 46.661H10.7937V50.6984H0V0H11.2763V15.6894C13.944 12.8119 17.5946 11.3686 22.2104 11.3686C24.8342 11.3686 27.4844 11.9884 30.1521 13.2191C33.6798 14.866 36.3299 17.2832 38.0938 20.4795C39.8664 23.6847 40.7439 27.3414 40.7439 31.4497ZM29.4764 31.6533C29.4764 29.006 28.5901 26.7305 26.8262 24.8357C25.0624 22.9409 22.8686 21.9935 20.236 21.9935C17.5683 21.9935 15.3305 22.9144 13.5491 24.7649C11.759 26.6154 10.8639 28.8909 10.8639 31.5825C10.8639 34.3184 11.7151 36.6382 13.4087 38.5329C15.1112 40.4277 17.3138 41.3751 20.0341 41.3751C22.7545 41.3751 25.001 40.4366 26.7911 38.5684C28.5813 36.7002 29.4764 34.3981 29.4764 31.6533Z" fill="black"/>
<path d="M67.5 22.817C64.6041 22.9055 62.3927 23.4191 60.8834 24.3576C59.3652 25.2961 58.6106 27.1112 58.6106 29.8028V50.6985H47.3342V12.6791H57.9261V16.7165H58.0577C59.8742 13.1572 63.0158 11.3687 67.5 11.3687V22.817Z" fill="black"/>
<path d="M109.464 32.1315C109.464 33.2294 109.376 34.2299 109.192 35.1418H80.9438C81.2597 37.3377 82.2426 39.0819 83.8923 40.3835C85.5421 41.685 87.499 42.3402 89.7631 42.3402C92.4746 42.3402 94.765 41.1538 96.6254 38.7809H108.174C106.498 42.7121 104.041 45.8818 100.802 48.3079C97.5643 50.725 93.8875 51.938 89.7631 51.938C84.2434 51.938 79.531 49.9724 75.6347 46.0412C71.7385 42.11 69.7991 37.3642 69.7991 31.795C69.7991 26.2258 71.7209 21.4269 75.5733 17.4071C79.4169 13.3874 84.0854 11.3775 89.5612 11.3775C95.2652 11.3775 100.004 13.3874 103.786 17.4071C107.577 21.4269 109.464 26.332 109.464 32.1315ZM98.1962 27.4742C97.7399 25.4643 96.7219 23.8795 95.1423 22.7107C93.554 21.542 91.7287 20.9665 89.6402 20.9665C87.5604 20.9665 85.7264 21.5508 84.1381 22.7107C82.5497 23.8795 81.5318 25.4643 81.0842 27.4742H98.1962Z" fill="black"/>
<path d="M183.484 21.3118H178.052V50.7073H166.776V21.3118H161.212V12.679H166.776V0H178.052V12.679H183.484V21.3118Z" fill="black"/>
<path d="M225.316 32.1315C225.316 33.2294 225.228 34.2299 225.044 35.1418H196.796C197.112 37.3377 198.095 39.0819 199.745 40.3835C201.394 41.685 203.351 42.3402 205.615 42.3402C208.327 42.3402 210.617 41.1538 212.478 38.7809H224.026C222.35 42.7121 219.893 45.8818 216.655 48.3079C213.417 50.725 209.74 51.938 205.615 51.938C200.096 51.938 195.383 49.9724 191.487 46.0412C187.591 42.11 185.651 37.3642 185.651 31.795C185.651 26.2258 187.573 21.4269 191.426 17.4071C195.269 13.3874 199.938 11.3775 205.413 11.3775C211.117 11.3775 215.856 13.3874 219.638 17.4071C223.429 21.4269 225.316 26.332 225.316 32.1315ZM214.048 27.4742C213.592 25.4643 212.574 23.8795 210.995 22.7107C209.406 21.542 207.581 20.9665 205.492 20.9665C203.413 20.9665 201.579 21.5508 199.99 22.7107C198.402 23.8795 197.384 25.4643 196.936 27.4742H214.048Z" fill="black"/>
<path d="M270 36.2486C268.912 40.9059 266.534 44.6866 262.866 47.5907C259.198 50.4948 254.994 51.938 250.238 51.938C244.63 51.938 239.865 49.9724 235.943 46.0412C232.029 42.11 230.072 37.2934 230.072 31.5825C230.072 25.9602 231.994 21.1878 235.838 17.2655C239.69 13.3343 244.394 11.3687 249.966 11.3687C254.854 11.3687 259.154 12.8296 262.866 15.7514C266.578 18.6733 268.929 22.5336 269.93 27.3326H258.522C256.89 23.7732 254.082 21.9935 250.098 21.9935C247.474 21.9935 245.368 22.9321 243.779 24.8003C242.191 26.6774 241.401 28.9529 241.401 31.6533C241.401 34.3893 242.226 36.6913 243.876 38.5418C245.526 40.3923 247.684 41.3131 250.361 41.3131C254.029 41.3131 256.749 39.622 258.513 36.2398H270V36.2486Z" fill="black"/>
<path d="M128.892 37.7803C127.172 35.8856 126.312 33.6455 126.312 31.0424C126.312 28.4393 127.172 26.1992 128.892 24.3044C130.612 22.4097 132.762 21.4623 135.333 21.4623C137.905 21.4623 140.055 22.4097 141.775 24.3044C143.486 26.1992 144.355 28.4393 144.355 31.0424H155.613C155.613 25.2518 153.683 20.4352 149.813 16.6102C145.943 12.7764 141.125 10.864 135.333 10.864C129.542 10.864 124.715 12.7764 120.854 16.6102C116.984 20.4441 115.054 25.2518 115.054 31.0424C115.054 36.833 116.984 41.6496 120.854 45.4745C124.715 49.3084 129.542 51.2208 135.333 51.2208V40.6137C132.762 40.6137 130.612 39.6663 128.892 37.7803Z" fill="black"/>
<path d="M155.613 51.2208H144.354V40.0647H155.613V51.2208Z" fill="black"/>
</g>
<defs>
<clipPath id="clip0_401_1326">
<rect width="270" height="52" fill="white"/>
</clipPath>
</defs>
</svg>
